HIERARCHY
ROOT mixamorig:Hips
{
	OFFSET 0.000000 104.274902 0.000000
	CHANNELS 6 Xposition Yposition Zposition Xrotation Yrotation Zrotation
	JOINT mixamorig:Spine
	{
		OFFSET 0.000000 10.181549 0.131524
		CHANNELS 6 Xposition Yposition Zposition Xrotation Yrotation Zrotation
		JOINT mixamorig:Spine1
		{
			OFFSET 0.000000 9.893990 -1.470706
			CHANNELS 3 Xrotation Yrotation Zrotation
			JOINT mixamorig:Spine2
			{
				OFFSET 0.000000 9.220787 -1.370637
				CHANNELS 3 Xrotation Yrotation Zrotation
				JOINT mixamorig:Neck
				{
					OFFSET 0.000000 16.740372 -2.049022
					CHANNELS 6 Xposition Yposition Zposition Xrotation Yrotation Zrotation
					JOINT mixamorig:Head
					{
						OFFSET 0.000000 9.617859 1.684976
						CHANNELS 6 Xposition Yposition Zposition Xrotation Yrotation Zrotation
						JOINT mixamorig:HeadTop_End
						{
							OFFSET 0.000000 22.037384 7.501072
							CHANNELS 6 Xposition Yposition Zposition Xrotation Yrotation Zrotation
							End Site
							{
								OFFSET 0.000000 23.106567 -2.828246
							}
						}
					}
				}
				JOINT mixamorig:RightShoulder
				{
					OFFSET -4.570000 11.014877 -2.160840
					CHANNELS 6 Xposition Yposition Zposition Xrotation Yrotation Zrotation
					JOINT mixamorig:RightArm
					{
						OFFSET -10.592867 -0.524796 -2.232105
						CHANNELS 3 Xrotation Yrotation Zrotation
						JOINT mixamorig:RightForeArm
						{
							OFFSET -27.841497 0.000000 -0.000002
							CHANNELS 3 Xrotation Yrotation Zrotation
							JOINT mixamorig:RightHand
							{
								OFFSET -28.328812 0.000000 -0.000001
								CHANNELS 3 Xrotation Yrotation Zrotation
								JOINT mixamorig:RightHandThumb1
								{
									OFFSET -2.464798 -1.573990 2.681911
									CHANNELS 6 Xposition Yposition Zposition Xrotation Yrotation Zrotation
									JOINT mixamorig:RightHandThumb2
									{
										OFFSET -3.244781 -1.873383 1.873376
										CHANNELS 3 Xrotation Yrotation Zrotation
										JOINT mixamorig:RightHandThumb3
										{
											OFFSET -2.646263 -1.527817 1.527818
											CHANNELS 6 Xposition Yposition Zposition Xrotation Yrotation Zrotation
											JOINT mixamorig:RightHandThumb4
											{
												OFFSET -1.994591 -1.151581 1.151575
												CHANNELS 6 Xposition Yposition Zposition Xrotation Yrotation Zrotation
												End Site
												{
													OFFSET -1.860176 -1.142715 1.365483
												}
											}
										}
									}
								}
								JOINT mixamorig:RightHandIndex1
								{
									OFFSET -9.108299 -0.517883 2.259803
									CHANNELS 6 Xposition Yposition Zposition Xrotation Yrotation Zrotation
									JOINT mixamorig:RightHandIndex2
									{
										OFFSET -3.699997 0.000000 0.000000
										CHANNELS 3 Xrotation Yrotation Zrotation
										JOINT mixamorig:RightHandIndex3
										{
											OFFSET -2.850006 0.000000 0.000000
											CHANNELS 3 Xrotation Yrotation Zrotation
											JOINT mixamorig:RightHandIndex4
											{
												OFFSET -2.772194 0.000000 0.000000
												CHANNELS 3 Xrotation Yrotation Zrotation
												End Site
												{
													OFFSET -2.772202 0.000000 -0.000484
												}
											}
										}
									}
								}
								JOINT mixamorig:RightHandMiddle1
								{
									OFFSET -9.532501 0.000000 -0.000000
									CHANNELS 6 Xposition Yposition Zposition Xrotation Yrotation Zrotation
									JOINT mixamorig:RightHandMiddle2
									{
										OFFSET -3.699997 0.000000 0.000000
										CHANNELS 3 Xrotation Yrotation Zrotation
										JOINT mixamorig:RightHandMiddle3
										{
											OFFSET -2.949997 0.000000 0.000000
											CHANNELS 3 Xrotation Yrotation Zrotation
											JOINT mixamorig:RightHandMiddle4
											{
												OFFSET -2.946594 0.000000 0.000000
												CHANNELS 3 Xrotation Yrotation Zrotation
												End Site
												{
													OFFSET -2.946602 0.000000 -0.000982
												}
											}
										}
									}
								}
								JOINT mixamorig:RightHandRing1
								{
									OFFSET -9.103600 -0.043106 -1.865100
									CHANNELS 6 Xposition Yposition Zposition Xrotation Yrotation Zrotation
									JOINT mixamorig:RightHandRing2
									{
										OFFSET -3.379303 0.000000 0.000000
										CHANNELS 3 Xrotation Yrotation Zrotation
										JOINT mixamorig:RightHandRing3
										{
											OFFSET -2.889694 0.000000 0.000000
											CHANNELS 3 Xrotation Yrotation Zrotation
											JOINT mixamorig:RightHandRing4
											{
												OFFSET -2.638802 0.000000 0.000000
												CHANNELS 3 Xrotation Yrotation Zrotation
												End Site
												{
													OFFSET -2.638802 0.000000 0.004218
												}
											}
										}
									}
								}
								JOINT mixamorig:RightHandPinky1
								{
									OFFSET -8.076698 -0.486725 -3.806299
									CHANNELS 6 Xposition Yposition Zposition Xrotation Yrotation Zrotation
									JOINT mixamorig:RightHandPinky2
									{
										OFFSET -3.600006 0.000000 0.000000
										CHANNELS 3 Xrotation Yrotation Zrotation
										JOINT mixamorig:RightHandPinky3
										{
											OFFSET -2.099998 0.000000 0.000000
											CHANNELS 3 Xrotation Yrotation Zrotation
											JOINT mixamorig:RightHandPinky4
											{
												OFFSET -2.115791 0.000000 0.000000
												CHANNELS 3 Xrotation Yrotation Zrotation
												End Site
												{
													OFFSET -2.115799 0.000000 0.000174
												}
											}
										}
									}
								}
							}
						}
					}
				}
				JOINT mixamorig:LeftShoulder
				{
					OFFSET 4.570400 11.014679 -2.160816
					CHANNELS 6 Xposition Yposition Zposition Xrotation Yrotation Zrotation
					JOINT mixamorig:LeftArm
					{
						OFFSET 10.592373 -0.524597 -2.232116
						CHANNELS 3 Xrotation Yrotation Zrotation
						JOINT mixamorig:LeftForeArm
						{
							OFFSET 27.841488 0.000000 0.000001
							CHANNELS 3 Xrotation Yrotation Zrotation
							JOINT mixamorig:LeftHand
							{
								OFFSET 28.328808 0.000000 -0.000000
								CHANNELS 3 Xrotation Yrotation Zrotation
								JOINT mixamorig:LeftHandThumb1
								{
									OFFSET 2.466103 -1.576202 2.681698
									CHANNELS 6 Xposition Yposition Zposition Xrotation Yrotation Zrotation
									JOINT mixamorig:LeftHandThumb2
									{
										OFFSET 3.243317 -1.872528 1.872530
										CHANNELS 3 Xrotation Yrotation Zrotation
										JOINT mixamorig:LeftHandThumb3
										{
											OFFSET 2.647881 -1.528763 1.528754
											CHANNELS 6 Xposition Yposition Zposition Xrotation Yrotation Zrotation
											JOINT mixamorig:LeftHandThumb4
											{
												OFFSET 1.998924 -1.154083 1.154080
												CHANNELS 6 Xposition Yposition Zposition Xrotation Yrotation Zrotation
												End Site
												{
													OFFSET 1.884041 -1.149155 1.337651
												}
											}
										}
									}
								}
								JOINT mixamorig:LeftHandIndex1
								{
									OFFSET 9.109299 -0.518005 2.259900
									CHANNELS 6 Xposition Yposition Zposition Xrotation Yrotation Zrotation
									JOINT mixamorig:LeftHandIndex2
									{
										OFFSET 3.699997 0.000000 0.000000
										CHANNELS 3 Xrotation Yrotation Zrotation
										JOINT mixamorig:LeftHandIndex3
										{
											OFFSET 2.850006 0.000000 0.000000
											CHANNELS 3 Xrotation Yrotation Zrotation
											JOINT mixamorig:LeftHandIndex4
											{
												OFFSET 2.774895 0.000000 0.000000
												CHANNELS 3 Xrotation Yrotation Zrotation
												End Site
												{
													OFFSET 2.774902 0.000000 -0.000072
												}
											}
										}
									}
								}
								JOINT mixamorig:LeftHandMiddle1
								{
									OFFSET 9.533401 0.000000 0.000000
									CHANNELS 6 Xposition Yposition Zposition Xrotation Yrotation Zrotation
									JOINT mixamorig:LeftHandMiddle2
									{
										OFFSET 3.699997 0.000000 0.000000
										CHANNELS 3 Xrotation Yrotation Zrotation
										JOINT mixamorig:LeftHandMiddle3
										{
											OFFSET 2.949997 0.000000 0.000000
											CHANNELS 3 Xrotation Yrotation Zrotation
											JOINT mixamorig:LeftHandMiddle4
											{
												OFFSET 2.952896 0.000000 0.000000
												CHANNELS 3 Xrotation Yrotation Zrotation
												End Site
												{
													OFFSET 2.952904 0.000000 0.000165
												}
											}
										}
									}
								}
								JOINT mixamorig:LeftHandRing1
								{
									OFFSET 9.104500 -0.042999 -1.865101
									CHANNELS 6 Xposition Yposition Zposition Xrotation Yrotation Zrotation
									JOINT mixamorig:LeftHandRing2
									{
										OFFSET 3.149994 0.000000 0.000000
										CHANNELS 3 Xrotation Yrotation Zrotation
										JOINT mixamorig:LeftHandRing3
										{
											OFFSET 2.950005 0.000000 0.000000
											CHANNELS 3 Xrotation Yrotation Zrotation
											JOINT mixamorig:LeftHandRing4
											{
												OFFSET 2.644302 0.000000 0.000000
												CHANNELS 3 Xrotation Yrotation Zrotation
												End Site
												{
													OFFSET 2.644302 0.000000 0.000083
												}
											}
										}
									}
								}
								JOINT mixamorig:LeftHandPinky1
								{
									OFFSET 8.077805 -0.486893 -3.806302
									CHANNELS 6 Xposition Yposition Zposition Xrotation Yrotation Zrotation
									JOINT mixamorig:LeftHandPinky2
									{
										OFFSET 3.600006 0.000000 0.000000
										CHANNELS 3 Xrotation Yrotation Zrotation
										JOINT mixamorig:LeftHandPinky3
										{
											OFFSET 2.099998 0.000000 0.000000
											CHANNELS 3 Xrotation Yrotation Zrotation
											JOINT mixamorig:LeftHandPinky4
											{
												OFFSET 2.125496 0.000000 0.000000
												CHANNELS 3 Xrotation Yrotation Zrotation
												End Site
												{
													OFFSET 2.125504 0.000000 -0.001254
												}
											}
										}
									}
								}
							}
						}
					}
				}
			}
		}
	}
	JOINT mixamorig:RightUpLeg
	{
		OFFSET -8.207800 -6.751701 -1.599544
		CHANNELS 6 Xposition Yposition Zposition Xrotation Yrotation Zrotation
		JOINT mixamorig:RightLeg
		{
			OFFSET 0.000004 -44.370152 0.345934
			CHANNELS 3 Xrotation Yrotation Zrotation
			JOINT mixamorig:RightFoot
			{
				OFFSET 0.000004 -44.423664 -3.043535
				CHANNELS 3 Xrotation Yrotation Zrotation
				JOINT mixamorig:RightToeBase
				{
					OFFSET 0.000001 -8.728691 10.710592
					CHANNELS 3 Xrotation Yrotation Zrotation
					JOINT mixamorig:RightToe_End
					{
						OFFSET 0.000000 -0.000665 9.278101
						CHANNELS 3 Xrotation Yrotation Zrotation
						End Site
						{
							OFFSET 0.000000 -0.000665 9.278103
						}
					}
				}
			}
		}
	}
	JOINT mixamorig:LeftUpLeg
	{
		OFFSET 8.207800 -6.751701 -1.599544
		CHANNELS 6 Xposition Yposition Zposition Xrotation Yrotation Zrotation
		JOINT mixamorig:LeftLeg
		{
			OFFSET 0.000004 -44.370037 0.346940
			CHANNELS 3 Xrotation Yrotation Zrotation
			JOINT mixamorig:LeftFoot
			{
				OFFSET 0.000004 -44.423611 -3.044388
				CHANNELS 3 Xrotation Yrotation Zrotation
				JOINT mixamorig:LeftToeBase
				{
					OFFSET 0.000001 -8.728690 10.710592
					CHANNELS 3 Xrotation Yrotation Zrotation
					JOINT mixamorig:LeftToe_End
					{
						OFFSET 0.000000 -0.000680 9.278101
						CHANNELS 3 Xrotation Yrotation Zrotation
						End Site
						{
							OFFSET 0.000000 -0.000680 9.278101
						}
					}
				}
			}
		}
	}
}
MOTION
Frames: 4
Frame Time: 0.033333
-0.516523 64.068367 1.353670 -18.218237 -6.708780 -7.729635 0.000001 10.181540 0.131519 5.911846 3.025216 3.766260 10.720749 0.586488 2.402822 10.706152 0.643692 2.447337 -0.000000 16.740360 -2.049017 -4.085091 0.690325 -0.715833 0.000001 9.617866 1.684977 -12.557263 1.524185 3.744502 0.000001 22.037384 7.501073 0.000000 0.000000 0.000000 -4.569999 11.014856 -2.160841 3.349714 13.625703 10.892394 -22.863392 27.056130 21.646179 -0.000422 82.839594 0.000490 -6.499942 4.025220 -30.044943 -2.464786 -1.574002 2.681910 7.564649 7.028707 27.703719 -9.818517 -72.226675 -19.707070 -2.646264 -1.527813 1.527811 -2.645434 -31.790019 -7.915081 -1.994583 -1.151581 1.151563 -0.000000 0.000003 0.000006 -9.108296 -0.517881 2.259803 6.036403 -6.888418 82.440971 4.121022 -6.349619 65.937868 1.115601 -3.782566 32.854576 0.000000 -0.000000 0.000001 -9.532492 -0.000004 0.000002 6.036400 -6.888419 82.440971 4.121019 -6.349615 65.937868 1.115599 -3.782566 32.854573 0.000001 -0.000000 -0.000003 -9.103601 -0.043104 -1.865099 6.036403 -6.888416 82.440964 4.121019 -6.349615 65.937868 1.115599 -3.782567 32.854576 0.000000 0.000002 0.000001 -8.076701 -0.486713 -3.806299 6.036404 -6.888420 82.440971 4.121023 -6.349615 65.937861 1.115592 -3.782567 32.854600 -0.000000 0.000002 0.000001 4.570404 11.014690 -2.160814 1.244638 0.076117 -10.790645 -32.097159 -41.849003 -48.693942 0.000011 -81.974175 -0.000023 -1.052524 0.742346 26.301402 2.466093 -1.576189 2.681710 18.241729 -23.305282 -17.628944 53.671616 63.248460 -40.439515 2.647888 -1.528750 1.528754 10.741891 32.760815 -5.296232 1.998929 -1.154073 1.154082 0.000001 -0.000000 -0.000002 9.109306 -0.518016 2.259899 6.090335 6.835969 -83.384725 5.535319 6.749086 -78.694557 1.552537 4.360281 -39.183941 0.000001 0.000001 -0.000001 9.533393 -0.000004 0.000008 6.088415 6.835750 -83.368510 5.537222 6.749461 -78.710772 1.552547 4.360283 -39.183928 -0.000000 0.000003 0.000001 9.104502 -0.042984 -1.865096 6.090336 6.835968 -83.384725 5.535318 6.749091 -78.694550 1.552540 4.360280 -39.183945 -0.000001 -0.000002 0.000002 8.077805 -0.486897 -3.806298 10.148459 7.303610 -83.373981 5.544912 2.664448 -78.811354 1.552531 4.360283 -39.183945 -0.000002 -0.000002 -0.000000 -8.207801 -6.751703 -1.599551 -69.736587 -4.015079 -3.352907 49.900211 -0.481784 -0.104777 36.480802 3.593031 12.996150 -0.000014 0.000003 0.000000 -0.000000 0.000001 0.000000 8.207798 -6.751705 -1.599543 -70.132724 -0.535703 14.333350 92.739912 9.744970 0.545675 -6.150890 3.219349 5.773227 -0.083496 0.000009 -0.000001 0.000000 0.000000 -0.000000 
-0.512158 64.068703 1.342978 -18.268842 -6.748756 -7.738928 -0.000001 10.181544 0.131526 5.974017 3.051732 3.752711 10.822061 0.594207 2.334441 10.807168 0.654109 2.380852 -0.000000 16.740355 -2.049021 -4.046268 0.652767 -0.655027 0.000001 9.617844 1.684981 -12.367488 1.436463 3.675520 0.000000 22.037369 7.501077 -0.000001 0.000000 -0.000000 -4.570000 11.014904 -2.160841 3.352724 13.641145 10.883783 -22.794764 26.980659 21.571264 -0.000325 83.200836 0.000387 -6.790033 4.325738 -29.383330 -2.464816 -1.573983 2.681913 7.564649 7.028704 27.703720 -9.818517 -72.226669 -19.707065 -2.646252 -1.527801 1.527814 -2.645430 -31.790019 -7.915082 -1.994587 -1.151583 1.151574 0.000006 -0.000005 0.000001 -9.108296 -0.517879 2.259802 6.036407 -6.888421 82.440971 4.121021 -6.349616 65.937868 1.115597 -3.782567 32.854573 -0.000000 -0.000001 0.000001 -9.532505 -0.000003 0.000003 6.036403 -6.888420 82.440971 4.121018 -6.349616 65.937868 1.115598 -3.782566 32.854573 -0.000000 0.000000 -0.000000 -9.103600 -0.043104 -1.865097 6.036404 -6.888420 82.440964 4.121024 -6.349615 65.937861 1.115597 -3.782566 32.854573 0.000000 0.000003 0.000001 -8.076695 -0.486720 -3.806292 6.036408 -6.888423 82.440971 4.121028 -6.349619 65.937861 1.115586 -3.782569 32.854596 0.000001 0.000002 0.000002 4.570405 11.014697 -2.160816 1.244137 0.055943 -10.733865 -32.274498 -41.601630 -48.833049 0.000005 -82.002411 -0.000005 -1.075028 0.515375 26.642628 2.466115 -1.576208 2.681688 18.241726 -23.305280 -17.628949 53.671613 63.248453 -40.439522 2.647887 -1.528765 1.528750 10.741891 32.760815 -5.296231 1.998921 -1.154084 1.154085 0.000002 0.000004 0.000001 9.109286 -0.518010 2.259896 6.090334 6.835970 -83.384732 5.535321 6.749093 -78.694557 1.552534 4.360282 -39.183945 0.000002 -0.000000 0.000000 9.533401 0.000009 -0.000006 6.088413 6.835754 -83.368517 5.537222 6.749457 -78.710779 1.552546 4.360285 -39.183928 -0.000001 -0.000005 -0.000000 9.104500 -0.043013 -1.865108 6.090338 6.835970 -83.384725 5.535320 6.749090 -78.694557 1.552536 4.360281 -39.183945 -0.000001 0.000000 -0.000000 8.077834 -0.486897 -3.806309 10.148459 7.303611 -83.373981 5.544909 2.664445 -78.811347 1.552533 4.360282 -39.183938 0.000001 -0.000003 0.000001 -8.207801 -6.751708 -1.599545 -69.815742 -4.005175 -3.340320 50.117319 -0.348702 -0.098983 36.340701 3.594701 13.097612 -0.000009 0.000002 -0.000001 0.000000 0.000000 0.000000 8.207799 -6.751710 -1.599551 -70.080582 -0.532438 14.362392 92.739953 9.745604 0.546719 -6.144070 3.233964 5.735333 -0.088077 0.000007 0.000001 -0.000000 -0.000000 -0.000000 
-0.507129 64.068680 1.331995 -18.314227 -6.787580 -7.748454 0.000001 10.181540 0.131525 6.032836 3.078761 3.739102 10.920128 0.602347 2.267260 10.904990 0.664930 2.315405 0.000000 16.740362 -2.049022 -4.005069 0.618069 -0.599460 0.000000 9.617848 1.684977 -12.188772 1.354064 3.613319 0.000000 22.037369 7.501071 0.000001 0.000000 -0.000000 -4.570001 11.014870 -2.160842 3.355710 13.656687 10.875218 -22.724850 26.924351 21.491762 -0.000523 83.562658 0.000586 -7.051577 4.615322 -28.790484 -2.464794 -1.574006 2.681909 7.564649 7.028709 27.703724 -9.818529 -72.226669 -19.707070 -2.646260 -1.527820 1.527810 -2.645437 -31.790019 -7.915083 -1.994571 -1.151566 1.151579 0.000001 0.000003 0.000001 -9.108304 -0.517885 2.259806 6.036403 -6.888415 82.440971 4.121017 -6.349614 65.937868 1.115602 -3.782567 32.854576 -0.000000 -0.000000 -0.000001 -9.532495 -0.000015 0.000000 6.036402 -6.888420 82.440964 4.121022 -6.349612 65.937868 1.115595 -3.782568 32.854573 0.000001 -0.000001 -0.000001 -9.103593 -0.043114 -1.865100 6.036400 -6.888414 82.440957 4.121019 -6.349612 65.937868 1.115598 -3.782565 32.854573 0.000005 -0.000000 0.000004 -8.076705 -0.486732 -3.806296 6.036405 -6.888419 82.440971 4.121025 -6.349617 65.937861 1.115590 -3.782565 32.854596 -0.000002 0.000002 -0.000000 4.570399 11.014685 -2.160816 1.243817 0.037375 -10.671747 -32.445956 -41.340488 -48.971616 0.000042 -82.037819 0.000032 -1.118442 0.323170 26.969456 2.466108 -1.576210 2.681705 18.241729 -23.305282 -17.628944 53.671620 63.248453 -40.439525 2.647896 -1.528757 1.528748 10.741892 32.760811 -5.296235 1.998918 -1.154081 1.154088 -0.000001 0.000002 -0.000000 9.109303 -0.518009 2.259896 6.090341 6.835970 -83.384725 5.535321 6.749097 -78.694557 1.552533 4.360279 -39.183938 -0.000000 -0.000000 0.000001 9.533414 0.000006 -0.000008 6.088418 6.835754 -83.368517 5.537224 6.749461 -78.710772 1.552541 4.360281 -39.183928 0.000002 -0.000001 -0.000001 9.104498 -0.043012 -1.865103 6.090342 6.835968 -83.384725 5.535324 6.749099 -78.694557 1.552530 4.360277 -39.183941 -0.000001 -0.000001 -0.000001 8.077804 -0.486887 -3.806311 10.148464 7.303613 -83.373981 5.544911 2.664450 -78.811347 1.552533 4.360284 -39.183935 0.000001 -0.000001 0.000001 -8.207800 -6.751713 -1.599538 -69.896761 -3.995860 -3.328762 50.328037 -0.215594 -0.093191 36.199149 3.598336 13.205563 -0.000011 0.000001 -0.000001 -0.000000 -0.000001 -0.000000 8.207800 -6.751709 -1.599555 -70.034171 -0.530980 14.388569 92.739755 9.746263 0.547759 -6.136072 3.250686 5.698263 -0.092425 0.000009 -0.000002 -0.000000 0.000000 -0.000000 
-0.501913 64.068558 1.322866 -18.352319 -6.823324 -7.758395 0.000000 10.181550 0.131520 6.088741 3.105899 3.722261 11.012936 0.610713 2.199355 10.997600 0.676323 2.249060 -0.000000 16.740358 -2.049019 -3.958863 0.585645 -0.546103 0.000001 9.617836 1.684976 -12.030052 1.277034 3.560953 -0.000000 22.037369 7.501074 -0.000000 -0.000000 -0.000000 -4.570001 11.014885 -2.160840 3.358706 13.672207 10.866609 -22.649577 26.881898 21.412209 -0.000446 83.917364 0.000515 -7.212189 4.905482 -28.331609 -2.464793 -1.573991 2.681901 7.564648 7.028706 27.703719 -9.818519 -72.226669 -19.707071 -2.646260 -1.527826 1.527827 -2.645429 -31.790016 -7.915082 -1.994598 -1.151597 1.151577 0.000004 -0.000003 -0.000000 -9.108286 -0.517876 2.259797 6.036404 -6.888417 82.440971 4.121022 -6.349618 65.937868 1.115600 -3.782566 32.854569 -0.000003 -0.000001 -0.000001 -9.532494 -0.000001 -0.000007 6.036403 -6.888421 82.440971 4.121022 -6.349614 65.937861 1.115598 -3.782565 32.854573 -0.000000 0.000000 0.000000 -9.103588 -0.043104 -1.865107 6.036405 -6.888417 82.440964 4.121024 -6.349616 65.937861 1.115598 -3.782566 32.854573 -0.000001 0.000004 0.000003 -8.076700 -0.486727 -3.806305 6.036403 -6.888423 82.440971 4.121028 -6.349618 65.937861 1.115592 -3.782566 32.854600 0.000001 0.000002 0.000005 4.570399 11.014687 -2.160815 1.243423 0.023321 -10.622310 -32.603368 -41.096552 -49.092446 -0.000032 -82.049457 -0.000060 -1.080577 0.091276 27.347545 2.466101 -1.576204 2.681695 18.241731 -23.305285 -17.628945 53.671609 63.248453 -40.439528 2.647891 -1.528756 1.528760 10.741892 32.760811 -5.296234 1.998921 -1.154067 1.154088 0.000001 0.000001 -0.000002 9.109276 -0.518000 2.259894 6.090341 6.835964 -83.384725 5.535320 6.749092 -78.694557 1.552532 4.360278 -39.183941 0.000003 -0.000000 0.000001 9.533420 0.000009 -0.000010 6.088413 6.835749 -83.368510 5.537222 6.749459 -78.710772 1.552541 4.360283 -39.183924 -0.000001 0.000002 0.000001 9.104487 -0.043001 -1.865102 6.090342 6.835962 -83.384725 5.535320 6.749090 -78.694557 1.552533 4.360281 -39.183938 0.000000 -0.000004 0.000003 8.077790 -0.486885 -3.806309 10.148462 7.303608 -83.373981 5.544911 2.664451 -78.811354 1.552528 4.360282 -39.183941 0.000001 -0.000001 0.000001 -8.207800 -6.751706 -1.599544 -69.983976 -3.989765 -3.320497 50.539124 -0.085096 -0.087438 36.053369 3.601782 13.307414 -0.000011 0.000002 -0.000001 0.000000 0.000000 0.000001 8.207798 -6.751711 -1.599554 -69.995082 -0.532139 14.411271 92.739489 9.746770 0.548796 -6.130180 3.267427 5.664874 -0.094719 0.000001 -0.000004 -0.000000 -0.000001 -0.000000 
